M48
;Layer_Color=9474304
;FILE_FORMAT=2:5
INCH,LZ
;TYPE=PLATED
T01F00S00C0.01200
T02F00S00C0.02756
T03F00S00C0.03346
T04F00S00C0.03543
T05F00S00C0.03937
T06F00S00C0.04134
T07F00S00C0.04331
T08F00S00C0.09843
%
T01
X03297Y00383
X0408Y00223
T02
X0021Y0040059
X0043
Y0079941
X0021
X0032815Y01065
X00525
X0071815Y0068
X00915
X01215Y0068972
Y0078815
Y0088657
Y00985
Y0108343
Y0118185
Y0128028
X01515
Y0118185
Y0108343
Y00985
Y0088657
Y0078815
Y0068972
X0149Y00485
X01245
Y0008618
X0149
X0225Y0010059
X0249Y0009618
Y00495
X0225Y0049941
X02355Y0091059
X0258Y0091559
Y0131441
X02355Y0130941
X0281Y0129343
Y0109657
X02755Y0037343
Y0017657
T03
X0032Y001
X0042
X01835Y00795
X01935
X01905Y0121
X01805
X03025Y0118
X03125
Y00875
X03025
X02855Y0081
X02755
X02735Y00605
X02835
X03005Y0042
X03105
X03115Y0016
X03015
X03335Y00175
X03435
X04154Y00414
Y00514
X04135Y00765
Y00865
X0346331Y0134916
X0336331
X0433Y0082
X0443
X04665Y00775
Y00875
X0489Y0078
X0499
X04975Y0054
X04875
X04705Y00545
X04605
X0448Y00555
X0438
T04
X03245Y0038
Y0048
Y0058
Y0068
X0322Y0087
Y0097
Y0107
Y0117
X0352
Y0107
Y0097
Y0087
X03545Y0068
Y0058
Y0048
Y0038
T05
X0044059Y01315
X0078941
T06
X04155Y0122
X0474555
X0495055Y00205
X0436
T07
X001Y01
Y011
Y012
Y013
X0365Y001
X0375
X0385
X0395
X0495Y01
Y011
Y012
Y013
T08
X00745Y00255
X00965Y0026
X0179Y00345
X0201Y0035
M30
