G04*
G04 #@! TF.GenerationSoftware,Altium Limited,Altium Designer,25.2.1 (25)*
G04*
G04 Layer_Color=255*
%FSLAX25Y25*%
%MOIN*%
G70*
G04*
G04 #@! TF.SameCoordinates,C1108634-7D56-49FF-B426-694D52BA22A1*
G04*
G04*
G04 #@! TF.FilePolarity,Positive*
G04*
G01*
G75*
%ADD25R,0.04724X0.04724*%
%ADD26C,0.04724*%
%ADD30R,0.07874X0.07874*%
%ADD31C,0.07874*%
%ADD34C,0.05512*%
%ADD35C,0.06201*%
%ADD36C,0.13780*%
%ADD37C,0.04331*%
%ADD38C,0.05906*%
%ADD39R,0.05906X0.05906*%
%ADD40C,0.06496*%
%ADD41R,0.06496X0.06496*%
%ADD42R,0.06496X0.06496*%
D25*
X21000Y40059D02*
D03*
X149000Y8618D02*
D03*
X258000Y91559D02*
D03*
X235500Y91059D02*
D03*
X275500Y17657D02*
D03*
X249000Y9618D02*
D03*
X225000Y10059D02*
D03*
X281000Y109657D02*
D03*
X124500Y8618D02*
D03*
X43000Y40059D02*
D03*
D26*
X91500Y68000D02*
D03*
X71815D02*
D03*
X43000Y79941D02*
D03*
X124500Y48500D02*
D03*
X281000Y129343D02*
D03*
X275500Y37343D02*
D03*
X258000Y131441D02*
D03*
X235500Y130941D02*
D03*
X249000Y49500D02*
D03*
X225000Y49941D02*
D03*
X32815Y106500D02*
D03*
X52500D02*
D03*
X149000Y48500D02*
D03*
X21000Y79941D02*
D03*
D30*
X44059Y131500D02*
D03*
D31*
X78941D02*
D03*
D34*
X311500Y16000D02*
D03*
X301500D02*
D03*
X343500Y17500D02*
D03*
X333500D02*
D03*
X415400Y41400D02*
D03*
Y51400D02*
D03*
X283500Y60500D02*
D03*
X273500D02*
D03*
X346331Y134916D02*
D03*
X336331D02*
D03*
X470500Y54500D02*
D03*
X460500D02*
D03*
X448000Y55500D02*
D03*
X438000D02*
D03*
X193500Y79500D02*
D03*
X302500Y87500D02*
D03*
X190500Y121000D02*
D03*
X413500Y86500D02*
D03*
X499000Y78000D02*
D03*
X433000Y82000D02*
D03*
X443000D02*
D03*
X466500Y87500D02*
D03*
Y77500D02*
D03*
X497500Y54000D02*
D03*
X487500D02*
D03*
X489000Y78000D02*
D03*
X413500Y76500D02*
D03*
X180500Y121000D02*
D03*
X312500Y118000D02*
D03*
X302500D02*
D03*
X285500Y81000D02*
D03*
X275500D02*
D03*
X312500Y87500D02*
D03*
X310500Y42000D02*
D03*
X300500D02*
D03*
X183500Y79500D02*
D03*
X32000Y10000D02*
D03*
X42000D02*
D03*
D35*
X474555Y122000D02*
D03*
X415500D02*
D03*
X495055Y20500D02*
D03*
X436000D02*
D03*
D36*
X201000Y35000D02*
D03*
X179000Y34500D02*
D03*
X74500Y25500D02*
D03*
X96500Y26000D02*
D03*
D37*
X121500Y118185D02*
D03*
X151500Y68972D02*
D03*
Y78815D02*
D03*
Y88657D02*
D03*
Y98500D02*
D03*
Y108343D02*
D03*
Y118185D02*
D03*
Y128028D02*
D03*
X121500Y68972D02*
D03*
Y78815D02*
D03*
Y88657D02*
D03*
Y98500D02*
D03*
Y108343D02*
D03*
Y128028D02*
D03*
D38*
X352000Y87000D02*
D03*
Y97000D02*
D03*
Y107000D02*
D03*
Y117000D02*
D03*
X322000Y87000D02*
D03*
Y97000D02*
D03*
Y107000D02*
D03*
X354500Y58000D02*
D03*
X324500D02*
D03*
Y48000D02*
D03*
Y38000D02*
D03*
X354500Y68000D02*
D03*
Y48000D02*
D03*
Y38000D02*
D03*
D39*
X322000Y117000D02*
D03*
X324500Y68000D02*
D03*
D40*
X10000Y130000D02*
D03*
Y120000D02*
D03*
X395000Y10000D02*
D03*
X495000Y130000D02*
D03*
Y110000D02*
D03*
Y120000D02*
D03*
X385000Y10000D02*
D03*
X375000D02*
D03*
X10000Y110000D02*
D03*
D41*
X495000Y100000D02*
D03*
X10000D02*
D03*
D42*
X365000Y10000D02*
D03*
M02*
