G04*
G04 #@! TF.GenerationSoftware,Altium Limited,Altium Designer,25.2.1 (25)*
G04*
G04 Layer_Physical_Order=1*
G04 Layer_Color=255*
%FSLAX25Y25*%
%MOIN*%
G70*
G04*
G04 #@! TF.SameCoordinates,C1108634-7D56-49FF-B426-694D52BA22A1*
G04*
G04*
G04 #@! TF.FilePolarity,Positive*
G04*
G01*
G75*
%ADD10C,0.01000*%
%ADD15R,0.02992X0.05512*%
G04:AMPARAMS|DCode=16|XSize=71.82mil|YSize=24.33mil|CornerRadius=12.17mil|HoleSize=0mil|Usage=FLASHONLY|Rotation=0.000|XOffset=0mil|YOffset=0mil|HoleType=Round|Shape=RoundedRectangle|*
%AMROUNDEDRECTD16*
21,1,0.07182,0.00000,0,0,0.0*
21,1,0.04749,0.02433,0,0,0.0*
1,1,0.02433,0.02375,0.00000*
1,1,0.02433,-0.02375,0.00000*
1,1,0.02433,-0.02375,0.00000*
1,1,0.02433,0.02375,0.00000*
%
%ADD16ROUNDEDRECTD16*%
%ADD17R,0.07182X0.02433*%
%ADD25R,0.04724X0.04724*%
%ADD26C,0.04724*%
%ADD30R,0.07874X0.07874*%
%ADD31C,0.07874*%
%ADD33C,0.05000*%
%ADD34C,0.05512*%
%ADD35C,0.06201*%
%ADD36C,0.13780*%
%ADD37C,0.04331*%
%ADD38C,0.05906*%
%ADD39R,0.05906X0.05906*%
%ADD40C,0.06496*%
%ADD41R,0.06496X0.06496*%
%ADD42R,0.06496X0.06496*%
%ADD43C,0.02400*%
G36*
X503471Y142000D02*
Y125444D01*
X502500Y125000D01*
X499263D01*
X497635Y126628D01*
X498399Y127392D01*
X498958Y128360D01*
X499248Y129441D01*
Y129500D01*
X495000D01*
X490752D01*
Y129441D01*
X491042Y128360D01*
X491601Y127392D01*
X492392Y126601D01*
X493360Y126041D01*
X493444Y125842D01*
X492923Y125000D01*
X486500D01*
X486406Y142000D01*
X398500D01*
X398500Y24000D01*
X398209D01*
Y14134D01*
X397209Y13630D01*
X396640Y13959D01*
X395559Y14248D01*
X395500D01*
Y10000D01*
X394500D01*
Y14248D01*
X394441D01*
X393360Y13959D01*
X392392Y13399D01*
X391601Y12608D01*
X391234Y11973D01*
X390115Y11678D01*
X385000Y16792D01*
Y26000D01*
X366500Y44500D01*
Y51500D01*
X365557Y142000D01*
X20500D01*
Y115000D01*
X11617D01*
X11485Y116000D01*
X11640Y116042D01*
X12608Y116601D01*
X13399Y117392D01*
X13959Y118360D01*
X14248Y119441D01*
Y119500D01*
X10000D01*
X5752D01*
Y119441D01*
X6041Y118360D01*
X6601Y117392D01*
X7392Y116601D01*
X8360Y116042D01*
X8515Y116000D01*
X8383Y115000D01*
X1529D01*
Y142000D01*
Y148471D01*
X503471D01*
Y142000D01*
D02*
G37*
%LPC*%
G36*
X495559Y134248D02*
X495500D01*
Y130500D01*
X499248D01*
Y130559D01*
X498958Y131640D01*
X498399Y132608D01*
X497608Y133399D01*
X496640Y133958D01*
X495559Y134248D01*
D02*
G37*
G36*
X10559D02*
X10500D01*
Y130500D01*
X14248D01*
Y130559D01*
X13959Y131640D01*
X13399Y132608D01*
X12608Y133399D01*
X11640Y133958D01*
X10559Y134248D01*
D02*
G37*
G36*
X494500D02*
X494441D01*
X493360Y133958D01*
X492392Y133399D01*
X491601Y132608D01*
X491042Y131640D01*
X490752Y130559D01*
Y130500D01*
X494500D01*
Y134248D01*
D02*
G37*
G36*
X9500D02*
X9441D01*
X8360Y133958D01*
X7392Y133399D01*
X6601Y132608D01*
X6041Y131640D01*
X5752Y130559D01*
Y130500D01*
X9500D01*
Y134248D01*
D02*
G37*
G36*
X14248Y129500D02*
X10500D01*
Y125752D01*
X10559D01*
X11640Y126041D01*
X12608Y126601D01*
X13399Y127392D01*
X13959Y128360D01*
X14248Y129441D01*
Y129500D01*
D02*
G37*
G36*
X9500D02*
X5752D01*
Y129441D01*
X6041Y128360D01*
X6601Y127392D01*
X7392Y126601D01*
X8360Y126041D01*
X9441Y125752D01*
X9500D01*
Y129500D01*
D02*
G37*
G36*
X10559Y124248D02*
X10500D01*
Y120500D01*
X14248D01*
Y120559D01*
X13959Y121640D01*
X13399Y122608D01*
X12608Y123399D01*
X11640Y123959D01*
X10559Y124248D01*
D02*
G37*
G36*
X9500D02*
X9441D01*
X8360Y123959D01*
X7392Y123399D01*
X6601Y122608D01*
X6041Y121640D01*
X5752Y120559D01*
Y120500D01*
X9500D01*
Y124248D01*
D02*
G37*
%LPD*%
D10*
X495000Y126600D02*
X495500D01*
X128400Y12518D02*
X149000Y33118D01*
X91000Y98000D02*
X114200D01*
X493200Y20500D02*
Y59800D01*
X119700Y96200D02*
X121500D01*
X91000Y111300D02*
X114615D01*
X413500Y86500D02*
X419700Y80300D01*
Y24500D02*
Y80300D01*
X405200Y10000D02*
X419700Y24500D01*
X395000Y10000D02*
X405200D01*
X153118Y8618D02*
X179000Y34500D01*
X149000Y8618D02*
X153118D01*
X74500Y25500D02*
Y65315D01*
X71815Y68000D02*
X74500Y65315D01*
X190500Y82500D02*
Y121000D01*
Y82500D02*
X193500Y79500D01*
X147800Y94800D02*
X151500Y98500D01*
X147800Y72672D02*
Y94800D01*
Y72672D02*
X151500Y68972D01*
X121500Y51500D02*
Y68972D01*
Y51500D02*
X124500Y48500D01*
X21000Y79941D02*
Y108441D01*
X44059Y131500D01*
X21000Y62059D02*
Y79941D01*
Y62059D02*
X43000Y40059D01*
X19000Y13000D02*
X23500D01*
X25600Y10900D01*
Y8000D02*
Y10900D01*
Y8000D02*
X29600Y4000D01*
X33000D01*
X37000Y8000D01*
Y34059D01*
X43000Y40059D01*
X152500Y48500D02*
X183500Y79500D01*
X149000Y48500D02*
X152500D01*
X180500Y82500D02*
Y121000D01*
Y82500D02*
X183500Y79500D01*
X124500Y8618D02*
X128400Y12518D01*
Y98200D01*
X123500Y103100D02*
X128400Y98200D01*
X119300Y103100D02*
X123500D01*
X114200Y98000D02*
X119300Y103100D01*
X91000Y94748D02*
Y98000D01*
X149000Y33118D02*
Y48500D01*
X312500Y118000D02*
X317200Y113300D01*
Y48700D02*
Y113300D01*
X310500Y42000D02*
X317200Y48700D01*
X216700Y18359D02*
X225000Y10059D01*
X216700Y18359D02*
Y120100D01*
X211500Y125300D02*
X216700Y120100D01*
X168457Y125300D02*
X211500D01*
X151500Y108343D02*
X168457Y125300D01*
X225000Y33618D02*
Y49941D01*
Y33618D02*
X249000Y9618D01*
X11439Y16740D02*
X25260D01*
X32000Y10000D01*
X275500Y62500D02*
Y81000D01*
X273500Y60500D02*
X275500Y62500D01*
X302500Y97500D02*
Y118000D01*
Y97500D02*
X312500Y87500D01*
X443000Y60500D02*
Y82000D01*
X438000Y55500D02*
X443000Y60500D01*
X114615Y111300D02*
X121500Y118185D01*
X91000Y108252D02*
Y111300D01*
X258000Y131441D02*
X261900Y127541D01*
Y31257D02*
Y127541D01*
Y31257D02*
X275500Y17657D01*
X281000Y76900D02*
Y109657D01*
X279200Y75100D02*
X281000Y76900D01*
X279200Y43800D02*
Y75100D01*
Y43800D02*
X279400Y43600D01*
Y13700D02*
Y43600D01*
X257500Y13700D02*
X279400D01*
X249000Y22200D02*
X257500Y13700D01*
X249000Y22200D02*
Y49500D01*
X121500Y96200D02*
Y98500D01*
X91500Y68000D02*
X119700Y96200D01*
X86000Y103900D02*
Y108252D01*
Y103900D02*
X87500Y102400D01*
X112115D01*
X118057Y108343D01*
X121500D01*
X81000Y108252D02*
Y125200D01*
X83828Y128028D01*
X121500D01*
X10000Y120000D02*
X15800Y114200D01*
Y45259D02*
Y114200D01*
Y45259D02*
X21000Y40059D01*
X408000Y22300D02*
Y44000D01*
X415400Y51400D01*
X322000Y87000D02*
X329700Y79300D01*
Y38300D02*
Y79300D01*
X413500Y86500D02*
X428500D01*
X433000Y82000D01*
X301500Y16000D02*
X305200Y19700D01*
Y84800D01*
X302500Y87500D02*
X305200Y84800D01*
X283500Y22100D02*
Y60500D01*
Y22100D02*
X293900Y11700D01*
X334200D01*
X338500Y16000D01*
Y32000D01*
X354500Y48000D01*
X379800Y22700D01*
Y8000D02*
Y22700D01*
Y8000D02*
X383400Y4400D01*
X419900D01*
X436000Y20500D01*
X497500Y54000D02*
X499700Y51800D01*
Y18000D02*
Y51800D01*
X497500Y15800D02*
X499700Y18000D01*
X491100Y15800D02*
X497500D01*
X483200Y23700D02*
X491100Y15800D01*
X483200Y23700D02*
Y98200D01*
X495000Y110000D01*
X322000Y107000D02*
X336331Y121331D01*
Y134916D01*
X457200Y51200D02*
X460500Y54500D01*
X435500Y51200D02*
X457200D01*
X433000Y53700D02*
X435500Y51200D01*
X433000Y53700D02*
Y82000D01*
X354500Y58000D02*
X395000Y17500D01*
X235500Y114059D02*
Y130941D01*
Y114059D02*
X258000Y91559D01*
X281000Y129343D02*
X292700Y117643D01*
Y97300D02*
Y117643D01*
Y97300D02*
X302500Y87500D01*
X193500Y49000D02*
Y79500D01*
X179000Y34500D02*
X193500Y49000D01*
X91000Y91000D02*
Y94748D01*
X90000Y90000D02*
X91000Y91000D01*
X69000Y90000D02*
X90000D01*
X52500Y106500D02*
X69000Y90000D01*
X346331Y102669D02*
X352000Y97000D01*
X346331Y102669D02*
Y134916D01*
X333500Y17500D02*
Y95500D01*
X322000Y107000D02*
X333500Y95500D01*
X495000Y126600D02*
Y130000D01*
X495500Y126600D02*
X499800Y122300D01*
Y78800D02*
Y122300D01*
X499000Y78000D02*
X499800Y78800D01*
X352000Y107000D02*
X356500Y102500D01*
Y77500D02*
Y102500D01*
X350000Y71000D02*
X356500Y77500D01*
X350000Y62500D02*
Y71000D01*
Y62500D02*
X354500Y58000D01*
X7500Y9260D02*
X11439D01*
X6300Y10460D02*
X7500Y9260D01*
X6300Y10460D02*
Y96300D01*
X10000Y100000D01*
X493200Y20500D02*
X495055D01*
X493200Y59800D02*
X494700Y61300D01*
Y79200D01*
X495000Y79500D01*
Y100000D01*
X147800Y124328D02*
X151500Y128028D01*
X147800Y102200D02*
Y124328D01*
Y102200D02*
X151500Y98500D01*
X81000Y94748D02*
Y108252D01*
X121500Y68972D02*
Y78815D01*
X489000Y66700D02*
Y78000D01*
X487500Y65200D02*
X489000Y66700D01*
X487500Y54000D02*
Y65200D01*
X171500Y4500D02*
Y10498D01*
X174499D01*
X175499Y9498D01*
Y7499D01*
X174499Y6499D01*
X171500D01*
X173499D02*
X175499Y4500D01*
X177498Y10498D02*
X181497D01*
X179497D01*
Y4500D01*
X183496Y10498D02*
X187495Y4500D01*
Y10498D02*
X183496Y4500D01*
X193493Y10498D02*
X191493Y9498D01*
X189494Y7499D01*
Y5500D01*
X190494Y4500D01*
X192493D01*
X193493Y5500D01*
Y6499D01*
X192493Y7499D01*
X189494D01*
X195492Y9498D02*
X196492Y10498D01*
X198491D01*
X199491Y9498D01*
Y5500D01*
X198491Y4500D01*
X196492D01*
X195492Y5500D01*
Y9498D01*
X201490Y5500D02*
X202490Y4500D01*
X204489D01*
X205489Y5500D01*
Y9498D01*
X204489Y10498D01*
X202490D01*
X201490Y9498D01*
Y8499D01*
X202490Y7499D01*
X205489D01*
X207488Y9498D02*
X208488Y10498D01*
X210487D01*
X211487Y9498D01*
Y5500D01*
X210487Y4500D01*
X208488D01*
X207488Y5500D01*
Y9498D01*
X84000Y55998D02*
Y50000D01*
X87999D01*
X92997D02*
X90998D01*
X89998Y51000D01*
Y52999D01*
X90998Y53999D01*
X92997D01*
X93997Y52999D01*
Y51999D01*
X89998D01*
X96996Y50000D02*
X98995D01*
X99995Y51000D01*
Y52999D01*
X98995Y53999D01*
X96996D01*
X95996Y52999D01*
Y51000D01*
X96996Y50000D01*
X268999Y5998D02*
X267999Y6998D01*
X266000D01*
X265000Y5998D01*
Y2000D01*
X266000Y1000D01*
X267999D01*
X268999Y2000D01*
X270998Y1000D02*
X272997D01*
X271998D01*
Y6998D01*
X270998D01*
X276996Y4999D02*
X278995D01*
X279995Y3999D01*
Y1000D01*
X276996D01*
X275996Y2000D01*
X276996Y2999D01*
X279995D01*
X281995Y1000D02*
X283994D01*
X282994D01*
Y4999D01*
X281995D01*
X286993D02*
Y1000D01*
Y2999D01*
X287993Y3999D01*
X288992Y4999D01*
X289992D01*
X295990Y1000D02*
X293991D01*
X292991Y2000D01*
Y3999D01*
X293991Y4999D01*
X295990D01*
X296990Y3999D01*
Y2999D01*
X292991D01*
X224999Y73498D02*
X223999Y74498D01*
X222000D01*
X221000Y73498D01*
Y69500D01*
X222000Y68500D01*
X223999D01*
X224999Y69500D01*
X227998Y68500D02*
X229997D01*
X230997Y69500D01*
Y71499D01*
X229997Y72499D01*
X227998D01*
X226998Y71499D01*
Y69500D01*
X227998Y68500D01*
X232996D02*
Y72499D01*
X235995D01*
X236995Y71499D01*
Y68500D01*
X238994D02*
Y72499D01*
X241993D01*
X242993Y71499D01*
Y68500D01*
X245992D02*
X247991D01*
X248991Y69500D01*
Y71499D01*
X247991Y72499D01*
X245992D01*
X244992Y71499D01*
Y69500D01*
X245992Y68500D01*
X250990Y72499D02*
Y68500D01*
Y70499D01*
X251990Y71499D01*
X252990Y72499D01*
X253989D01*
D15*
X81000Y108252D02*
D03*
X86000D02*
D03*
X91000D02*
D03*
Y94748D02*
D03*
X81000D02*
D03*
D16*
X19000Y13000D02*
D03*
X11439Y9260D02*
D03*
D17*
Y16740D02*
D03*
D25*
X21000Y40059D02*
D03*
X149000Y8618D02*
D03*
X258000Y91559D02*
D03*
X235500Y91059D02*
D03*
X275500Y17657D02*
D03*
X249000Y9618D02*
D03*
X225000Y10059D02*
D03*
X281000Y109657D02*
D03*
X124500Y8618D02*
D03*
X43000Y40059D02*
D03*
D26*
X91500Y68000D02*
D03*
X71815D02*
D03*
X43000Y79941D02*
D03*
X124500Y48500D02*
D03*
X281000Y129343D02*
D03*
X275500Y37343D02*
D03*
X258000Y131441D02*
D03*
X235500Y130941D02*
D03*
X249000Y49500D02*
D03*
X225000Y49941D02*
D03*
X32815Y106500D02*
D03*
X52500D02*
D03*
X149000Y48500D02*
D03*
X21000Y79941D02*
D03*
D30*
X44059Y131500D02*
D03*
D31*
X78941D02*
D03*
D33*
X395000Y10000D02*
Y17500D01*
D34*
X311500Y16000D02*
D03*
X301500D02*
D03*
X343500Y17500D02*
D03*
X333500D02*
D03*
X415400Y41400D02*
D03*
Y51400D02*
D03*
X283500Y60500D02*
D03*
X273500D02*
D03*
X346331Y134916D02*
D03*
X336331D02*
D03*
X470500Y54500D02*
D03*
X460500D02*
D03*
X448000Y55500D02*
D03*
X438000D02*
D03*
X193500Y79500D02*
D03*
X302500Y87500D02*
D03*
X190500Y121000D02*
D03*
X413500Y86500D02*
D03*
X499000Y78000D02*
D03*
X433000Y82000D02*
D03*
X443000D02*
D03*
X466500Y87500D02*
D03*
Y77500D02*
D03*
X497500Y54000D02*
D03*
X487500D02*
D03*
X489000Y78000D02*
D03*
X413500Y76500D02*
D03*
X180500Y121000D02*
D03*
X312500Y118000D02*
D03*
X302500D02*
D03*
X285500Y81000D02*
D03*
X275500D02*
D03*
X312500Y87500D02*
D03*
X310500Y42000D02*
D03*
X300500D02*
D03*
X183500Y79500D02*
D03*
X32000Y10000D02*
D03*
X42000D02*
D03*
D35*
X474555Y122000D02*
D03*
X415500D02*
D03*
X495055Y20500D02*
D03*
X436000D02*
D03*
D36*
X201000Y35000D02*
D03*
X179000Y34500D02*
D03*
X74500Y25500D02*
D03*
X96500Y26000D02*
D03*
D37*
X121500Y118185D02*
D03*
X151500Y68972D02*
D03*
Y78815D02*
D03*
Y88657D02*
D03*
Y98500D02*
D03*
Y108343D02*
D03*
Y118185D02*
D03*
Y128028D02*
D03*
X121500Y68972D02*
D03*
Y78815D02*
D03*
Y88657D02*
D03*
Y98500D02*
D03*
Y108343D02*
D03*
Y128028D02*
D03*
D38*
X352000Y87000D02*
D03*
Y97000D02*
D03*
Y107000D02*
D03*
Y117000D02*
D03*
X322000Y87000D02*
D03*
Y97000D02*
D03*
Y107000D02*
D03*
X354500Y58000D02*
D03*
X324500D02*
D03*
Y48000D02*
D03*
Y38000D02*
D03*
X354500Y68000D02*
D03*
Y48000D02*
D03*
Y38000D02*
D03*
D39*
X322000Y117000D02*
D03*
X324500Y68000D02*
D03*
D40*
X10000Y130000D02*
D03*
Y120000D02*
D03*
X395000Y10000D02*
D03*
X495000Y130000D02*
D03*
Y110000D02*
D03*
Y120000D02*
D03*
X385000Y10000D02*
D03*
X375000D02*
D03*
X10000Y110000D02*
D03*
D41*
X495000Y100000D02*
D03*
X10000D02*
D03*
D42*
X365000Y10000D02*
D03*
D43*
X408000Y22300D02*
D03*
X329700Y38300D02*
D03*
M02*
