G04*
G04 #@! TF.GenerationSoftware,Altium Limited,Altium Designer,25.2.1 (25)*
G04*
G04 Layer_Color=2752767*
%FSLAX25Y25*%
%MOIN*%
G70*
G04*
G04 #@! TF.SameCoordinates,C1108634-7D56-49FF-B426-694D52BA22A1*
G04*
G04*
G04 #@! TF.FilePolarity,Positive*
G04*
G01*
G75*
%ADD45C,0.00200*%
%ADD46C,0.00267*%
D45*
X310700Y15200D02*
Y16800D01*
X312300D01*
Y15200D01*
X310700D01*
X300700D02*
Y16800D01*
X302300D01*
Y15200D01*
X300700D01*
X342700Y16700D02*
Y18300D01*
X344300D01*
Y16700D01*
X342700D01*
X332700D02*
Y18300D01*
X334300D01*
Y16700D01*
X332700D01*
X414600Y40600D02*
Y42200D01*
X416200D01*
Y40600D01*
X414600D01*
Y50600D02*
Y52200D01*
X416200D01*
Y50600D01*
X414600D01*
X282700Y59700D02*
Y61300D01*
X284300D01*
Y59700D01*
X282700D01*
X272700D02*
Y61300D01*
X274300D01*
Y59700D01*
X272700D01*
X345531Y134116D02*
Y135716D01*
X347131D01*
Y134116D01*
X345531D01*
X335531D02*
Y135716D01*
X337131D01*
Y134116D01*
X335531D01*
X474555Y121200D02*
X474955Y121600D01*
X475355D01*
X474955Y122000D01*
X475355Y122400D01*
X474955D01*
X474555Y122800D01*
X474155Y122400D01*
X473755D01*
X474155Y122000D01*
X473755Y121600D01*
X474155D01*
X474555Y121200D01*
X415500D02*
X415900Y121600D01*
X416300D01*
X415900Y122000D01*
X416300Y122400D01*
X415900D01*
X415500Y122800D01*
X415100Y122400D01*
X414700D01*
X415100Y122000D01*
X414700Y121600D01*
X415100D01*
X415500Y121200D01*
X469700Y53700D02*
Y55300D01*
X471300D01*
Y53700D01*
X469700D01*
X459700D02*
Y55300D01*
X461300D01*
Y53700D01*
X459700D01*
X447200Y54700D02*
Y56300D01*
X448800D01*
Y54700D01*
X447200D01*
X437200D02*
Y56300D01*
X438800D01*
Y54700D01*
X437200D01*
X495055Y19700D02*
X495455Y20100D01*
X495855D01*
X495455Y20500D01*
X495855Y20900D01*
X495455D01*
X495055Y21300D01*
X494655Y20900D01*
X494255D01*
X494655Y20500D01*
X494255Y20100D01*
X494655D01*
X495055Y19700D01*
X436000D02*
X436400Y20100D01*
X436800D01*
X436400Y20500D01*
X436800Y20900D01*
X436400D01*
X436000Y21300D01*
X435600Y20900D01*
X435200D01*
X435600Y20500D01*
X435200Y20100D01*
X435600D01*
X436000Y19700D01*
X200200Y34200D02*
X200600D01*
X201000Y34600D01*
X201400Y34200D01*
X201800D01*
Y34600D01*
X201400Y35000D01*
X201800Y35400D01*
Y35800D01*
X201400D01*
X201000Y35400D01*
X200600Y35800D01*
X200200D01*
Y35400D01*
X200600Y35000D01*
X200200Y34600D01*
Y34200D01*
X178200Y33700D02*
X178600D01*
X179000Y34100D01*
X179400Y33700D01*
X179800D01*
Y34100D01*
X179400Y34500D01*
X179800Y34900D01*
Y35300D01*
X179400D01*
X179000Y34900D01*
X178600Y35300D01*
X178200D01*
Y34900D01*
X178600Y34500D01*
X178200Y34100D01*
Y33700D01*
X121500Y117385D02*
X120700Y118985D01*
X122300D01*
X121500Y117385D01*
X151500Y68172D02*
X150700Y69772D01*
X152300D01*
X151500Y68172D01*
Y78015D02*
X150700Y79615D01*
X152300D01*
X151500Y78015D01*
Y87857D02*
X150700Y89457D01*
X152300D01*
X151500Y87857D01*
Y97700D02*
X150700Y99300D01*
X152300D01*
X151500Y97700D01*
Y107543D02*
X150700Y109143D01*
X152300D01*
X151500Y107543D01*
Y117385D02*
X150700Y118985D01*
X152300D01*
X151500Y117385D01*
Y127228D02*
X150700Y128828D01*
X152300D01*
X151500Y127228D01*
X121500Y68172D02*
X120700Y69772D01*
X122300D01*
X121500Y68172D01*
Y78015D02*
X120700Y79615D01*
X122300D01*
X121500Y78015D01*
Y87857D02*
X120700Y89457D01*
X122300D01*
X121500Y87857D01*
Y97700D02*
X120700Y99300D01*
X122300D01*
X121500Y97700D01*
Y107543D02*
X120700Y109143D01*
X122300D01*
X121500Y107543D01*
Y127228D02*
X120700Y128828D01*
X122300D01*
X121500Y127228D01*
X91500Y67200D02*
X90700Y68800D01*
X92300D01*
X91500Y67200D01*
X71815D02*
X71015Y68800D01*
X72615D01*
X71815Y67200D01*
X73700Y24700D02*
X74100D01*
X74500Y25100D01*
X74900Y24700D01*
X75300D01*
Y25100D01*
X74900Y25500D01*
X75300Y25900D01*
Y26300D01*
X74900D01*
X74500Y25900D01*
X74100Y26300D01*
X73700D01*
Y25900D01*
X74100Y25500D01*
X73700Y25100D01*
Y24700D01*
X21000Y39259D02*
X20200Y40859D01*
X21800D01*
X21000Y39259D01*
X43000Y79141D02*
X42200Y80741D01*
X43800D01*
X43000Y79141D01*
X149000Y7818D02*
X148200Y9418D01*
X149800D01*
X149000Y7818D01*
X124500Y47700D02*
X123700Y49300D01*
X125300D01*
X124500Y47700D01*
X192700Y78700D02*
Y80300D01*
X194300D01*
Y78700D01*
X192700D01*
X281000Y128543D02*
X280200Y130143D01*
X281800D01*
X281000Y128543D01*
X275500Y36543D02*
X274700Y38143D01*
X276300D01*
X275500Y36543D01*
X301700Y86700D02*
Y88300D01*
X303300D01*
Y86700D01*
X301700D01*
X189700Y120200D02*
Y121800D01*
X191300D01*
Y120200D01*
X189700D01*
X9200Y129200D02*
X9600Y130000D01*
X9200Y130800D01*
X10000Y130400D01*
X10800Y130800D01*
X10400Y130000D01*
X10800Y129200D01*
X10000Y129600D01*
X9200Y129200D01*
Y119200D02*
X9600Y120000D01*
X9200Y120800D01*
X10000Y120400D01*
X10800Y120800D01*
X10400Y120000D01*
X10800Y119200D01*
X10000Y119600D01*
X9200Y119200D01*
X394200Y9200D02*
X394600Y10000D01*
X394200Y10800D01*
X395000Y10400D01*
X395800Y10800D01*
X395400Y10000D01*
X395800Y9200D01*
X395000Y9600D01*
X394200Y9200D01*
X494200Y129200D02*
X494600Y130000D01*
X494200Y130800D01*
X495000Y130400D01*
X495800Y130800D01*
X495400Y130000D01*
X495800Y129200D01*
X495000Y129600D01*
X494200Y129200D01*
X412700Y85700D02*
Y87300D01*
X414300D01*
Y85700D01*
X412700D01*
X498200Y77200D02*
Y78800D01*
X499800D01*
Y77200D01*
X498200D01*
X432200Y81200D02*
Y82800D01*
X433800D01*
Y81200D01*
X432200D01*
X442200D02*
Y82800D01*
X443800D01*
Y81200D01*
X442200D01*
X465700Y86700D02*
Y88300D01*
X467300D01*
Y86700D01*
X465700D01*
Y76700D02*
Y78300D01*
X467300D01*
Y76700D01*
X465700D01*
X496700Y53200D02*
Y54800D01*
X498300D01*
Y53200D01*
X496700D01*
X486700D02*
Y54800D01*
X488300D01*
Y53200D01*
X486700D01*
X488200Y77200D02*
Y78800D01*
X489800D01*
Y77200D01*
X488200D01*
X412700Y75700D02*
Y77300D01*
X414300D01*
Y75700D01*
X412700D01*
X494200Y99200D02*
X494600Y100000D01*
X494200Y100800D01*
X495000Y100400D01*
X495800Y100800D01*
X495400Y100000D01*
X495800Y99200D01*
X495000Y99600D01*
X494200Y99200D01*
Y109200D02*
X494600Y110000D01*
X494200Y110800D01*
X495000Y110400D01*
X495800Y110800D01*
X495400Y110000D01*
X495800Y109200D01*
X495000Y109600D01*
X494200Y109200D01*
Y119200D02*
X494600Y120000D01*
X494200Y120800D01*
X495000Y120400D01*
X495800Y120800D01*
X495400Y120000D01*
X495800Y119200D01*
X495000Y119600D01*
X494200Y119200D01*
X384200Y9200D02*
X384600Y10000D01*
X384200Y10800D01*
X385000Y10400D01*
X385800Y10800D01*
X385400Y10000D01*
X385800Y9200D01*
X385000Y9600D01*
X384200Y9200D01*
X374200D02*
X374600Y10000D01*
X374200Y10800D01*
X375000Y10400D01*
X375800Y10800D01*
X375400Y10000D01*
X375800Y9200D01*
X375000Y9600D01*
X374200Y9200D01*
X364200D02*
X364600Y10000D01*
X364200Y10800D01*
X365000Y10400D01*
X365800Y10800D01*
X365400Y10000D01*
X365800Y9200D01*
X365000Y9600D01*
X364200Y9200D01*
X9200Y99200D02*
X9600Y100000D01*
X9200Y100800D01*
X10000Y100400D01*
X10800Y100800D01*
X10400Y100000D01*
X10800Y99200D01*
X10000Y99600D01*
X9200Y99200D01*
Y109200D02*
X9600Y110000D01*
X9200Y110800D01*
X10000Y110400D01*
X10800Y110800D01*
X10400Y110000D01*
X10800Y109200D01*
X10000Y109600D01*
X9200Y109200D01*
X43659Y131100D02*
Y130700D01*
X44459D01*
Y131100D01*
X44859D01*
Y131900D01*
X44459D01*
Y132300D01*
X43659D01*
Y131900D01*
X43259D01*
Y131100D01*
X43659D01*
X78541D02*
Y130700D01*
X79341D01*
Y131100D01*
X79741D01*
Y131900D01*
X79341D01*
Y132300D01*
X78541D01*
Y131900D01*
X78141D01*
Y131100D01*
X78541D01*
X179700Y120200D02*
Y121800D01*
X181300D01*
Y120200D01*
X179700D01*
X311700Y117200D02*
Y118800D01*
X313300D01*
Y117200D01*
X311700D01*
X301700D02*
Y118800D01*
X303300D01*
Y117200D01*
X301700D01*
X284700Y80200D02*
Y81800D01*
X286300D01*
Y80200D01*
X284700D01*
X274700D02*
Y81800D01*
X276300D01*
Y80200D01*
X274700D01*
X258000Y130641D02*
X257200Y132241D01*
X258800D01*
X258000Y130641D01*
Y90759D02*
X257200Y92359D01*
X258800D01*
X258000Y90759D01*
X235500Y130141D02*
X234700Y131741D01*
X236300D01*
X235500Y130141D01*
Y90259D02*
X234700Y91859D01*
X236300D01*
X235500Y90259D01*
X311700Y86700D02*
Y88300D01*
X313300D01*
Y86700D01*
X311700D01*
X275500Y16857D02*
X274700Y18457D01*
X276300D01*
X275500Y16857D01*
X309700Y41200D02*
Y42800D01*
X311300D01*
Y41200D01*
X309700D01*
X299700D02*
Y42800D01*
X301300D01*
Y41200D01*
X299700D01*
X249000Y48700D02*
X248200Y50300D01*
X249800D01*
X249000Y48700D01*
Y8818D02*
X248200Y10418D01*
X249800D01*
X249000Y8818D01*
X225000Y49141D02*
X224200Y50741D01*
X225800D01*
X225000Y49141D01*
Y9259D02*
X224200Y10859D01*
X225800D01*
X225000Y9259D01*
X281000Y108857D02*
X280200Y110457D01*
X281800D01*
X281000Y108857D01*
X32815Y105700D02*
X32015Y107300D01*
X33615D01*
X32815Y105700D01*
X52500D02*
X51700Y107300D01*
X53300D01*
X52500Y105700D01*
X182700Y78700D02*
Y80300D01*
X184300D01*
Y78700D01*
X182700D01*
X124500Y7818D02*
X123700Y9418D01*
X125300D01*
X124500Y7818D01*
X149000Y47700D02*
X148200Y49300D01*
X149800D01*
X149000Y47700D01*
X43000Y39259D02*
X42200Y40859D01*
X43800D01*
X43000Y39259D01*
X21000Y79141D02*
X20200Y80741D01*
X21800D01*
X21000Y79141D01*
X95700Y25200D02*
X96100D01*
X96500Y25600D01*
X96900Y25200D01*
X97300D01*
Y25600D01*
X96900Y26000D01*
X97300Y26400D01*
Y26800D01*
X96900D01*
X96500Y26400D01*
X96100Y26800D01*
X95700D01*
Y26400D01*
X96100Y26000D01*
X95700Y25600D01*
Y25200D01*
X31200Y9200D02*
Y10800D01*
X32800D01*
Y9200D01*
X31200D01*
X41200D02*
Y10800D01*
X42800D01*
Y9200D01*
X41200D01*
X407200Y22300D02*
X408000Y23100D01*
X408800Y22300D01*
X408000Y21500D01*
X407200Y22300D01*
X328900Y38300D02*
X329700Y39100D01*
X330500Y38300D01*
X329700Y37500D01*
X328900Y38300D01*
D46*
X352800Y87000D02*
G03*
X352800Y87000I-800J0D01*
G01*
Y97000D02*
G03*
X352800Y97000I-800J0D01*
G01*
Y107000D02*
G03*
X352800Y107000I-800J0D01*
G01*
Y117000D02*
G03*
X352800Y117000I-800J0D01*
G01*
X322800Y87000D02*
G03*
X322800Y87000I-800J0D01*
G01*
Y97000D02*
G03*
X322800Y97000I-800J0D01*
G01*
Y107000D02*
G03*
X322800Y107000I-800J0D01*
G01*
Y117000D02*
G03*
X322800Y117000I-800J0D01*
G01*
X355300Y58000D02*
G03*
X355300Y58000I-800J0D01*
G01*
X325300Y68000D02*
G03*
X325300Y68000I-800J0D01*
G01*
Y58000D02*
G03*
X325300Y58000I-800J0D01*
G01*
Y48000D02*
G03*
X325300Y48000I-800J0D01*
G01*
Y38000D02*
G03*
X325300Y38000I-800J0D01*
G01*
X355300Y68000D02*
G03*
X355300Y68000I-800J0D01*
G01*
Y48000D02*
G03*
X355300Y48000I-800J0D01*
G01*
Y38000D02*
G03*
X355300Y38000I-800J0D01*
G01*
M02*
