G04*
G04 #@! TF.GenerationSoftware,Altium Limited,Altium Designer,25.2.1 (25)*
G04*
G04 Layer_Color=65535*
%FSLAX25Y25*%
%MOIN*%
G70*
G04*
G04 #@! TF.SameCoordinates,C1108634-7D56-49FF-B426-694D52BA22A1*
G04*
G04*
G04 #@! TF.FilePolarity,Positive*
G04*
G01*
G75*
%ADD10C,0.01000*%
%ADD11C,0.00787*%
%ADD12C,0.00394*%
%ADD13C,0.00984*%
%ADD14C,0.02362*%
D10*
X307521Y16000D02*
G03*
X307521Y16000I-6021J0D01*
G01*
X305743D02*
G03*
X305743Y16000I-4243J0D01*
G01*
X337743Y17500D02*
G03*
X337743Y17500I-4243J0D01*
G01*
X339521D02*
G03*
X339521Y17500I-6021J0D01*
G01*
X425243Y46400D02*
G03*
X425243Y46400I-9843J0D01*
G01*
X289521Y60500D02*
G03*
X289521Y60500I-6021J0D01*
G01*
X287743D02*
G03*
X287743Y60500I-4243J0D01*
G01*
X352352Y134916D02*
G03*
X352352Y134916I-6021J0D01*
G01*
X350574D02*
G03*
X350574Y134916I-4243J0D01*
G01*
X475343Y54500D02*
G03*
X475343Y54500I-9843J0D01*
G01*
X442243Y55500D02*
G03*
X442243Y55500I-4243J0D01*
G01*
X444021D02*
G03*
X444021Y55500I-6021J0D01*
G01*
X210000Y34500D02*
G03*
X210000Y34500I-20000J0D01*
G01*
X447843Y82000D02*
G03*
X447843Y82000I-9843J0D01*
G01*
X476342Y82500D02*
G03*
X476342Y82500I-9843J0D01*
G01*
X491743Y54000D02*
G03*
X491743Y54000I-4243J0D01*
G01*
X493521D02*
G03*
X493521Y54000I-6021J0D01*
G01*
X493243Y78000D02*
G03*
X493243Y78000I-4243J0D01*
G01*
X495021D02*
G03*
X495021Y78000I-6021J0D01*
G01*
X417743Y76500D02*
G03*
X417743Y76500I-4243J0D01*
G01*
X419521D02*
G03*
X419521Y76500I-6021J0D01*
G01*
X194743Y121000D02*
G03*
X194743Y121000I-4243J0D01*
G01*
X196521D02*
G03*
X196521Y121000I-6021J0D01*
G01*
X306743Y118000D02*
G03*
X306743Y118000I-4243J0D01*
G01*
X308521D02*
G03*
X308521Y118000I-6021J0D01*
G01*
X279743Y81000D02*
G03*
X279743Y81000I-4243J0D01*
G01*
X281521D02*
G03*
X281521Y81000I-6021J0D01*
G01*
X306743Y87500D02*
G03*
X306743Y87500I-4243J0D01*
G01*
X308521D02*
G03*
X308521Y87500I-6021J0D01*
G01*
X304743Y42000D02*
G03*
X304743Y42000I-4243J0D01*
G01*
X306521D02*
G03*
X306521Y42000I-6021J0D01*
G01*
X189521Y79500D02*
G03*
X189521Y79500I-6021J0D01*
G01*
X187743D02*
G03*
X187743Y79500I-4243J0D01*
G01*
X105500Y25500D02*
G03*
X105500Y25500I-20000J0D01*
G01*
X46243Y10000D02*
G03*
X46243Y10000I-4243J0D01*
G01*
X48021D02*
G03*
X48021Y10000I-6021J0D01*
G01*
X112500Y64500D02*
Y132500D01*
X160500Y64500D02*
Y132500D01*
X112500D02*
X160500D01*
X112500Y64500D02*
X160500D01*
X295502Y24001D02*
Y29999D01*
X298501D01*
X299501Y28999D01*
Y27000D01*
X298501Y26000D01*
X295502D01*
X297502D02*
X299501Y24001D01*
X301501D02*
X303500D01*
X302500D01*
Y29999D01*
X301501Y28999D01*
X306499D02*
X307499Y29999D01*
X309498D01*
X310498Y28999D01*
Y25001D01*
X309498Y24001D01*
X307499D01*
X306499Y25001D01*
Y28999D01*
X329002Y4501D02*
Y10499D01*
X332001D01*
X333001Y9499D01*
Y7500D01*
X332001Y6500D01*
X329002D01*
X331001D02*
X333001Y4501D01*
X335000D02*
X337000D01*
X336000D01*
Y10499D01*
X335000Y9499D01*
X339999Y4501D02*
X341998D01*
X340998D01*
Y10499D01*
X339999Y9499D01*
X411501Y31999D02*
X410501Y32999D01*
X408502D01*
X407502Y31999D01*
Y28001D01*
X408502Y27001D01*
X410501D01*
X411501Y28001D01*
X413500Y27001D02*
X415500D01*
X414500D01*
Y32999D01*
X413500Y31999D01*
X418499D02*
X419498Y32999D01*
X421498D01*
X422498Y31999D01*
Y28001D01*
X421498Y27001D01*
X419498D01*
X418499Y28001D01*
Y31999D01*
X270502Y66001D02*
Y71999D01*
X273501D01*
X274500Y70999D01*
Y69000D01*
X273501Y68000D01*
X270502D01*
X272501D02*
X274500Y66001D01*
X276500Y70999D02*
X277499Y71999D01*
X279499D01*
X280498Y70999D01*
Y70000D01*
X279499Y69000D01*
X280498Y68000D01*
Y67001D01*
X279499Y66001D01*
X277499D01*
X276500Y67001D01*
Y68000D01*
X277499Y69000D01*
X276500Y70000D01*
Y70999D01*
X277499Y69000D02*
X279499D01*
X329502Y140501D02*
Y146499D01*
X332502D01*
X333501Y145499D01*
Y143500D01*
X332502Y142500D01*
X329502D01*
X331502D02*
X333501Y140501D01*
X335501D02*
X337500D01*
X336500D01*
Y146499D01*
X335501Y145499D01*
X343498Y140501D02*
Y146499D01*
X340499Y143500D01*
X344498D01*
X437501Y126499D02*
X436502Y127499D01*
X434502D01*
X433502Y126499D01*
Y122501D01*
X434502Y121501D01*
X436502D01*
X437501Y122501D01*
X439501Y121501D02*
X441500D01*
X440500D01*
Y127499D01*
X439501Y126499D01*
X448498Y121501D02*
X444499D01*
X448498Y125500D01*
Y126499D01*
X447498Y127499D01*
X445499D01*
X444499Y126499D01*
X453500Y68499D02*
X452501Y69499D01*
X450501D01*
X449502Y68499D01*
Y64501D01*
X450501Y63501D01*
X452501D01*
X453500Y64501D01*
X455500Y69499D02*
X459498D01*
Y68499D01*
X455500Y64501D01*
Y63501D01*
X432002Y42001D02*
Y47999D01*
X435002D01*
X436001Y46999D01*
Y45000D01*
X435002Y44000D01*
X432002D01*
X434002D02*
X436001Y42001D01*
X438000D02*
X440000D01*
X439000D01*
Y47999D01*
X438000Y46999D01*
X442999D02*
X443998Y47999D01*
X445998D01*
X446998Y46999D01*
Y46000D01*
X445998Y45000D01*
X444998D01*
X445998D01*
X446998Y44000D01*
Y43001D01*
X445998Y42001D01*
X443998D01*
X442999Y43001D01*
X459500Y26499D02*
X458501Y27499D01*
X456501D01*
X455502Y26499D01*
Y22501D01*
X456501Y21501D01*
X458501D01*
X459500Y22501D01*
X461500Y26499D02*
X462499Y27499D01*
X464499D01*
X465498Y26499D01*
Y25500D01*
X464499Y24500D01*
X465498Y23500D01*
Y22501D01*
X464499Y21501D01*
X462499D01*
X461500Y22501D01*
Y23500D01*
X462499Y24500D01*
X461500Y25500D01*
Y26499D01*
X462499Y24500D02*
X464499D01*
X112000Y137000D02*
Y142998D01*
X114999D01*
X115999Y141998D01*
Y139999D01*
X114999Y138999D01*
X112000D01*
X117998Y137000D02*
X119997D01*
X118998D01*
Y142998D01*
X117998Y141998D01*
X68199Y85098D02*
X67199Y86098D01*
X65200D01*
X64200Y85098D01*
Y81100D01*
X65200Y80100D01*
X67199D01*
X68199Y81100D01*
X73197Y80100D02*
Y86098D01*
X70198Y83099D01*
X74197D01*
X464500Y99499D02*
X463501Y100499D01*
X461501D01*
X460502Y99499D01*
Y95501D01*
X461501Y94501D01*
X463501D01*
X464500Y95501D01*
X470498Y100499D02*
X468499Y99499D01*
X466500Y97500D01*
Y95501D01*
X467499Y94501D01*
X469499D01*
X470498Y95501D01*
Y96500D01*
X469499Y97500D01*
X466500D01*
X408000Y92700D02*
Y98698D01*
X410999D01*
X411999Y97698D01*
Y95699D01*
X410999Y94699D01*
X408000D01*
X409999D02*
X411999Y92700D01*
X413998D02*
X415997D01*
X414998D01*
Y98698D01*
X413998Y97698D01*
X422995Y92700D02*
X418996D01*
X422995Y96699D01*
Y97698D01*
X421995Y98698D01*
X419996D01*
X418996Y97698D01*
X482000Y63500D02*
Y69498D01*
X484999D01*
X485999Y68498D01*
Y66499D01*
X484999Y65499D01*
X482000D01*
X483999D02*
X485999Y63500D01*
X487998Y69498D02*
X491997D01*
Y68498D01*
X487998Y64500D01*
Y63500D01*
X483500Y87500D02*
Y93498D01*
X486499D01*
X487499Y92498D01*
Y90499D01*
X486499Y89499D01*
X483500D01*
X485499D02*
X487499Y87500D01*
X493497Y93498D02*
X491497Y92498D01*
X489498Y90499D01*
Y88500D01*
X490498Y87500D01*
X492497D01*
X493497Y88500D01*
Y89499D01*
X492497Y90499D01*
X489498D01*
X432699Y100298D02*
X431699Y101298D01*
X429700D01*
X428700Y100298D01*
Y96300D01*
X429700Y95300D01*
X431699D01*
X432699Y96300D01*
X434698Y95300D02*
X436697D01*
X435698D01*
Y101298D01*
X434698Y100298D01*
X439696Y95300D02*
X441696D01*
X440696D01*
Y101298D01*
X439696Y100298D01*
X318800Y132198D02*
Y127200D01*
X319800Y126200D01*
X321799D01*
X322799Y127200D01*
Y132198D01*
X324798Y131198D02*
X325798Y132198D01*
X327797D01*
X328797Y131198D01*
Y130199D01*
X327797Y129199D01*
X326797D01*
X327797D01*
X328797Y128199D01*
Y127200D01*
X327797Y126200D01*
X325798D01*
X324798Y127200D01*
X321300Y83198D02*
Y78200D01*
X322300Y77200D01*
X324299D01*
X325299Y78200D01*
Y83198D01*
X331297Y77200D02*
X327298D01*
X331297Y81199D01*
Y82198D01*
X330297Y83198D01*
X328298D01*
X327298Y82198D01*
X78400Y123498D02*
X82399D01*
X80399D01*
Y117500D01*
X84398D02*
X86397D01*
X85398D01*
Y123498D01*
X84398Y122498D01*
X295000Y51500D02*
Y57498D01*
X297999D01*
X298999Y56498D01*
Y54499D01*
X297999Y53499D01*
X295000D01*
X296999D02*
X298999Y51500D01*
X300998Y52500D02*
X301998Y51500D01*
X303997D01*
X304997Y52500D01*
Y56498D01*
X303997Y57498D01*
X301998D01*
X300998Y56498D01*
Y55499D01*
X301998Y54499D01*
X304997D01*
X270000Y90500D02*
Y96498D01*
X272999D01*
X273999Y95498D01*
Y93499D01*
X272999Y92499D01*
X270000D01*
X271999D02*
X273999Y90500D01*
X279997Y96498D02*
X275998D01*
Y93499D01*
X277997Y94499D01*
X278997D01*
X279997Y93499D01*
Y91500D01*
X278997Y90500D01*
X276998D01*
X275998Y91500D01*
X297000Y97000D02*
Y102998D01*
X299999D01*
X300999Y101998D01*
Y99999D01*
X299999Y98999D01*
X297000D01*
X298999D02*
X300999Y97000D01*
X305997D02*
Y102998D01*
X302998Y99999D01*
X306997D01*
X297000Y127500D02*
Y133498D01*
X299999D01*
X300999Y132498D01*
Y130499D01*
X299999Y129499D01*
X297000D01*
X298999D02*
X300999Y127500D01*
X302998Y132498D02*
X303998Y133498D01*
X305997D01*
X306997Y132498D01*
Y131499D01*
X305997Y130499D01*
X304997D01*
X305997D01*
X306997Y129499D01*
Y128500D01*
X305997Y127500D01*
X303998D01*
X302998Y128500D01*
X29800Y19500D02*
Y25498D01*
X32799D01*
X33799Y24498D01*
Y22499D01*
X32799Y21499D01*
X29800D01*
X31799D02*
X33799Y19500D01*
X35798D02*
X37797D01*
X36798D01*
Y25498D01*
X35798Y24498D01*
X10499Y25100D02*
Y29098D01*
X9499Y30098D01*
X7500D01*
X6500Y29098D01*
Y25100D01*
X7500Y24100D01*
X9499D01*
X8499Y26099D02*
X10499Y24100D01*
X9499D02*
X10499Y25100D01*
X12498Y24100D02*
X14497D01*
X13498D01*
Y30098D01*
X12498Y29098D01*
X243700Y61598D02*
Y55600D01*
X247699D01*
X249698Y56600D02*
X250698Y55600D01*
X252697D01*
X253697Y56600D01*
Y60598D01*
X252697Y61598D01*
X250698D01*
X249698Y60598D01*
Y59599D01*
X250698Y58599D01*
X253697D01*
X219700Y62098D02*
Y56100D01*
X223699D01*
X225698Y61098D02*
X226698Y62098D01*
X228697D01*
X229697Y61098D01*
Y60099D01*
X228697Y59099D01*
X229697Y58099D01*
Y57100D01*
X228697Y56100D01*
X226698D01*
X225698Y57100D01*
Y58099D01*
X226698Y59099D01*
X225698Y60099D01*
Y61098D01*
X226698Y59099D02*
X228697D01*
X252700Y143598D02*
Y137600D01*
X256699D01*
X258698Y143598D02*
X262697D01*
Y142598D01*
X258698Y138600D01*
Y137600D01*
X230200Y143098D02*
Y137100D01*
X234199D01*
X240197Y143098D02*
X238197Y142098D01*
X236198Y140099D01*
Y138100D01*
X237198Y137100D01*
X239197D01*
X240197Y138100D01*
Y139099D01*
X239197Y140099D01*
X236198D01*
X119200Y60598D02*
Y54600D01*
X123199D01*
X129197Y60598D02*
X125198D01*
Y57599D01*
X127197Y58599D01*
X128197D01*
X129197Y57599D01*
Y55600D01*
X128197Y54600D01*
X126198D01*
X125198Y55600D01*
X143700Y60598D02*
Y54600D01*
X147699D01*
X152697D02*
Y60598D01*
X149698Y57599D01*
X153697D01*
X39400Y146798D02*
Y140800D01*
X43399D01*
X45398Y145798D02*
X46398Y146798D01*
X48397D01*
X49397Y145798D01*
Y144799D01*
X48397Y143799D01*
X47397D01*
X48397D01*
X49397Y142799D01*
Y141800D01*
X48397Y140800D01*
X46398D01*
X45398Y141800D01*
X37700Y92098D02*
Y86100D01*
X41699D01*
X47697D02*
X43698D01*
X47697Y90099D01*
Y91098D01*
X46697Y92098D01*
X44698D01*
X43698Y91098D01*
X15700Y92098D02*
Y86100D01*
X19699D01*
X21698D02*
X23697D01*
X22698D01*
Y92098D01*
X21698Y91098D01*
X178300Y136498D02*
Y130500D01*
X181299D01*
X182299Y131500D01*
Y135498D01*
X181299Y136498D01*
X178300D01*
X188297Y130500D02*
X184298D01*
X188297Y134499D01*
Y135498D01*
X187297Y136498D01*
X185298D01*
X184298Y135498D01*
X178000Y94998D02*
Y89000D01*
X180999D01*
X181999Y90000D01*
Y93998D01*
X180999Y94998D01*
X178000D01*
X183998Y89000D02*
X185997D01*
X184998D01*
Y94998D01*
X183998Y93998D01*
X275199Y143098D02*
X274199Y144098D01*
X272200D01*
X271200Y143098D01*
Y139100D01*
X272200Y138100D01*
X274199D01*
X275199Y139100D01*
X277198D02*
X278198Y138100D01*
X280197D01*
X281197Y139100D01*
Y143098D01*
X280197Y144098D01*
X278198D01*
X277198Y143098D01*
Y142099D01*
X278198Y141099D01*
X281197D01*
X269699Y51098D02*
X268699Y52098D01*
X266700D01*
X265700Y51098D01*
Y47100D01*
X266700Y46100D01*
X268699D01*
X269699Y47100D01*
X275697Y52098D02*
X271698D01*
Y49099D01*
X273697Y50099D01*
X274697D01*
X275697Y49099D01*
Y47100D01*
X274697Y46100D01*
X272698D01*
X271698Y47100D01*
X174499Y62998D02*
X173499Y63998D01*
X171500D01*
X170500Y62998D01*
Y59000D01*
X171500Y58000D01*
X173499D01*
X174499Y59000D01*
X176498Y62998D02*
X177498Y63998D01*
X179497D01*
X180497Y62998D01*
Y61999D01*
X179497Y60999D01*
X178497D01*
X179497D01*
X180497Y59999D01*
Y59000D01*
X179497Y58000D01*
X177498D01*
X176498Y59000D01*
X29399Y127498D02*
X28399Y128498D01*
X26400D01*
X25400Y127498D01*
Y123500D01*
X26400Y122500D01*
X28399D01*
X29399Y123500D01*
X35397Y122500D02*
X31398D01*
X35397Y126499D01*
Y127498D01*
X34397Y128498D01*
X32398D01*
X31398Y127498D01*
X69999Y53998D02*
X68999Y54998D01*
X67000D01*
X66000Y53998D01*
Y50000D01*
X67000Y49000D01*
X68999D01*
X69999Y50000D01*
X71998Y49000D02*
X73997D01*
X72998D01*
Y54998D01*
X71998Y53998D01*
D11*
X404870Y122000D02*
G03*
X404870Y121606I0J-197D01*
G01*
D02*
G03*
X404870Y122000I0J197D01*
G01*
D02*
G03*
X404870Y121606I0J-197D01*
G01*
X425370Y20500D02*
G03*
X425370Y20106I0J-197D01*
G01*
D02*
G03*
X425370Y20500I0J197D01*
G01*
D02*
G03*
X425370Y20106I0J-197D01*
G01*
X334500Y122079D02*
G03*
X339500Y122079I2500J0D01*
G01*
X337000Y73079D02*
G03*
X342000Y73079I2500J0D01*
G01*
X67287Y63079D02*
Y72921D01*
Y63079D02*
X96028D01*
Y72921D01*
X67287D02*
X96028D01*
X93800Y98980D02*
Y104020D01*
X83972Y95250D02*
X88028D01*
X78200Y98980D02*
Y104020D01*
X326567Y81921D02*
X347433D01*
X339500Y122079D02*
X347433D01*
X326567D02*
X334500D01*
X347433Y81921D02*
Y122079D01*
X326567Y81921D02*
Y122079D01*
X71000Y126008D02*
Y136992D01*
X52000Y126008D02*
X71000D01*
X52000Y136992D02*
X71000D01*
Y131500D02*
X73008D01*
X49992D02*
X52000D01*
Y126008D02*
Y136992D01*
X329067Y32921D02*
Y73079D01*
X349933Y32921D02*
Y73079D01*
X329067D02*
X337000D01*
X342000D02*
X349933D01*
X329067Y32921D02*
X349933D01*
X258000Y125496D02*
Y127504D01*
Y95496D02*
Y97504D01*
X252508D02*
X263492D01*
Y125496D01*
X252508D02*
X263492D01*
X252508Y97504D02*
Y125496D01*
X235500Y124996D02*
Y127004D01*
Y94996D02*
Y97004D01*
X230008D02*
X240992D01*
Y124996D01*
X230008D02*
X240992D01*
X230008Y97004D02*
Y124996D01*
X265461Y12736D02*
X285539D01*
Y42264D01*
X265461D02*
X285539D01*
X265461Y12736D02*
Y42264D01*
X249000Y43555D02*
Y45563D01*
Y13555D02*
Y15563D01*
X243508D02*
X254492D01*
Y43555D01*
X243508D02*
X254492D01*
X243508Y15563D02*
Y43555D01*
X225000Y43996D02*
Y46004D01*
Y13996D02*
Y16004D01*
X219508D02*
X230492D01*
Y43996D01*
X219508D02*
X230492D01*
X219508Y16004D02*
Y43996D01*
X270961Y104736D02*
X291039D01*
Y134264D01*
X270961D02*
X291039D01*
X270961Y104736D02*
Y134264D01*
X12661Y11953D02*
Y14047D01*
X16507Y7291D02*
X17779D01*
Y15693D02*
Y18709D01*
Y7291D02*
Y10307D01*
X16507Y18709D02*
X17779D01*
X124500Y42555D02*
Y44563D01*
Y12555D02*
Y14563D01*
X119008D02*
X129992D01*
Y42555D01*
X119008D02*
X129992D01*
X119008Y14563D02*
Y42555D01*
X149000D02*
Y44563D01*
Y12555D02*
Y14563D01*
X143508D02*
X154492D01*
Y42555D01*
X143508D02*
X154492D01*
X143508Y14563D02*
Y42555D01*
X43000Y73996D02*
Y76004D01*
Y43996D02*
Y46004D01*
X37508D02*
X48492D01*
Y73996D01*
X37508D02*
X48492D01*
X37508Y46004D02*
Y73996D01*
X21000D02*
Y76004D01*
Y43996D02*
Y46004D01*
X15508D02*
X26492D01*
Y73996D01*
X15508D02*
X26492D01*
X15508Y46004D02*
Y73996D01*
D12*
X65122Y68000D02*
G03*
X64728Y68000I-197J0D01*
G01*
D02*
G03*
X65122Y68000I197J0D01*
G01*
X409595Y104283D02*
Y139717D01*
Y104283D02*
X480461D01*
Y139717D01*
X409595D02*
X480461D01*
X430094Y2783D02*
Y38217D01*
Y2783D02*
X500961D01*
Y38217D01*
X430094D02*
X500961D01*
X28484Y115358D02*
X56831D01*
Y97642D02*
Y115358D01*
X28484Y97642D02*
X56831D01*
X28484D02*
Y115358D01*
D13*
X81546Y113469D02*
G03*
X81546Y113469I-492J0D01*
G01*
X322492Y122118D02*
G03*
X322492Y122118I-492J0D01*
G01*
X324992Y73118D02*
G03*
X324992Y73118I-492J0D01*
G01*
D14*
X331685Y118142D02*
G03*
X331685Y118142I-1181J0D01*
G01*
X334185Y69142D02*
G03*
X334185Y69142I-1181J0D01*
G01*
M02*
