G04*
G04 #@! TF.GenerationSoftware,Altium Limited,Altium Designer,25.3.3 (18)*
G04*
G04 Layer_Color=255*
%FSLAX25Y25*%
%MOIN*%
G70*
G04*
G04 #@! TF.SameCoordinates,DF46C74D-B5CB-4F19-9302-0EB018A9C78A*
G04*
G04*
G04 #@! TF.FilePolarity,Positive*
G04*
G01*
G75*
%ADD15R,0.02992X0.05512*%
G04:AMPARAMS|DCode=16|XSize=71.82mil|YSize=24.33mil|CornerRadius=12.17mil|HoleSize=0mil|Usage=FLASHONLY|Rotation=0.000|XOffset=0mil|YOffset=0mil|HoleType=Round|Shape=RoundedRectangle|*
%AMROUNDEDRECTD16*
21,1,0.07182,0.00000,0,0,0.0*
21,1,0.04749,0.02433,0,0,0.0*
1,1,0.02433,0.02375,0.00000*
1,1,0.02433,-0.02375,0.00000*
1,1,0.02433,-0.02375,0.00000*
1,1,0.02433,0.02375,0.00000*
%
%ADD16ROUNDEDRECTD16*%
%ADD17R,0.07182X0.02433*%
%ADD24R,0.04724X0.04724*%
%ADD25C,0.04724*%
%ADD29R,0.07874X0.07874*%
%ADD30C,0.07874*%
%ADD33C,0.13780*%
%ADD34C,0.04331*%
%ADD35C,0.05906*%
%ADD36R,0.05906X0.05906*%
%ADD37C,0.05512*%
%ADD38C,0.06496*%
%ADD39R,0.06496X0.06496*%
%ADD40R,0.06496X0.06496*%
%ADD41C,0.06201*%
D15*
X81000Y108252D02*
D03*
X86000D02*
D03*
X91000D02*
D03*
Y94748D02*
D03*
X81000D02*
D03*
D16*
X19000Y13000D02*
D03*
X11439Y9260D02*
D03*
D17*
Y16740D02*
D03*
D24*
X21000Y40059D02*
D03*
X149000Y8618D02*
D03*
X258000Y91559D02*
D03*
X235500Y91059D02*
D03*
X275500Y17657D02*
D03*
X249000Y9618D02*
D03*
X225000Y10059D02*
D03*
X281000Y109657D02*
D03*
X124500Y8618D02*
D03*
X43000Y40059D02*
D03*
D25*
X91500Y68000D02*
D03*
X71815D02*
D03*
X43000Y79941D02*
D03*
X124500Y48500D02*
D03*
X281000Y129343D02*
D03*
X275500Y37343D02*
D03*
X258000Y131441D02*
D03*
X235500Y130941D02*
D03*
X249000Y49500D02*
D03*
X225000Y49941D02*
D03*
X32815Y106500D02*
D03*
X52500D02*
D03*
X149000Y48500D02*
D03*
X21000Y79941D02*
D03*
D29*
X44059Y131500D02*
D03*
D30*
X78941D02*
D03*
D33*
X201000Y35000D02*
D03*
X179000Y34500D02*
D03*
X74500Y25500D02*
D03*
X96500Y26000D02*
D03*
D34*
X121500Y118185D02*
D03*
X151500Y68972D02*
D03*
Y78815D02*
D03*
Y88657D02*
D03*
Y98500D02*
D03*
Y108343D02*
D03*
Y118185D02*
D03*
Y128028D02*
D03*
X121500Y68972D02*
D03*
Y78815D02*
D03*
Y88657D02*
D03*
Y98500D02*
D03*
Y108343D02*
D03*
Y128028D02*
D03*
D35*
X352000Y87000D02*
D03*
Y97000D02*
D03*
Y107000D02*
D03*
Y117000D02*
D03*
X322000Y87000D02*
D03*
Y97000D02*
D03*
Y107000D02*
D03*
X354500Y58000D02*
D03*
X324500D02*
D03*
Y48000D02*
D03*
Y38000D02*
D03*
X354500Y68000D02*
D03*
Y48000D02*
D03*
Y38000D02*
D03*
D36*
X322000Y117000D02*
D03*
X324500Y68000D02*
D03*
D37*
X438000Y55500D02*
D03*
X448000D02*
D03*
X193500Y79500D02*
D03*
X301500Y16000D02*
D03*
X302500Y87500D02*
D03*
X190500Y121000D02*
D03*
X413500Y86500D02*
D03*
X499000Y78000D02*
D03*
X460500Y54500D02*
D03*
X433000Y82000D02*
D03*
X333500Y17500D02*
D03*
X343500D02*
D03*
X443000Y82000D02*
D03*
X470500Y54500D02*
D03*
X466500Y87500D02*
D03*
Y77500D02*
D03*
X415400Y51400D02*
D03*
Y41400D02*
D03*
X497500Y54000D02*
D03*
X487500D02*
D03*
X489000Y78000D02*
D03*
X413500Y76500D02*
D03*
X180500Y121000D02*
D03*
X273500Y60500D02*
D03*
X283500D02*
D03*
X312500Y118000D02*
D03*
X302500D02*
D03*
X285500Y81000D02*
D03*
X275500D02*
D03*
X312500Y87500D02*
D03*
X310500Y42000D02*
D03*
X300500D02*
D03*
X336331Y134916D02*
D03*
X346331D02*
D03*
X311500Y16000D02*
D03*
X183500Y79500D02*
D03*
X32000Y10000D02*
D03*
X42000D02*
D03*
D38*
X10000Y130000D02*
D03*
Y120000D02*
D03*
X395000Y10000D02*
D03*
X495000Y130000D02*
D03*
Y110000D02*
D03*
Y120000D02*
D03*
X385000Y10000D02*
D03*
X375000D02*
D03*
X10000Y110000D02*
D03*
D39*
X495000Y100000D02*
D03*
X10000D02*
D03*
D40*
X365000Y10000D02*
D03*
D41*
X436000Y20500D02*
D03*
X495055D02*
D03*
X415500Y122000D02*
D03*
X474555D02*
D03*
M02*
